<svg width="80" height="80" viewBox="0 0 80 80" fill="none" xmlns="http://www.w3.org/2000/svg">
    <rect x="1" y="1" width="78" height="78" rx="11" fill="white"/>
    <path opacity="0.2" d="M40 55C48.2843 55 55 48.2843 55 40C55 31.7157 48.2843 25 40 25C31.7157 25 25 31.7157 25 40C25 48.2843 31.7157 55 40 55Z" fill="#2E90FA"/>
    <path d="M40 55C48.2843 55 55 48.2843 55 40C55 31.7157 48.2843 25 40 25C31.7157 25 25 31.7157 25 40C25 48.2843 31.7157 55 40 55Z" stroke="#2E90FA" stroke-width="1.5" stroke-miterlimit="10"/>
    <path d="M40 31.25V40H48.75" stroke="#2E90FA" stroke-width="1.5" stroke-linecap="round" stroke-linejoin="round"/>
    <rect x="1" y="1" width="78" height="78" rx="11" stroke="#F2EFFE" stroke-width="2"/>
</svg>
