<svg width="80" height="80" viewBox="0 0 80 80" fill="none" xmlns="http://www.w3.org/2000/svg">
    <rect x="1" y="1" width="78" height="78" rx="11" fill="white"/>
    <path opacity="0.2" d="M40 23.75H40C41.6576 23.75 43.2473 24.4085 44.4194 25.5806C45.5915 26.7527 46.25 28.3424 46.25 30V40C46.25 41.6576 45.5915 43.2473 44.4194 44.4194C43.2473 45.5915 41.6576 46.25 40 46.25H40C39.1792 46.25 38.3665 46.0883 37.6082 45.7742C36.8499 45.4602 36.1609 44.9998 35.5806 44.4194C35.0002 43.8391 34.5398 43.1501 34.2258 42.3918C33.9117 41.6335 33.75 40.8208 33.75 40V30C33.75 28.3424 34.4085 26.7527 35.5806 25.5806C36.7527 24.4085 38.3424 23.75 40 23.75V23.75Z" fill="#7A5AF8"/>
    <path d="M40 23.75H40C41.6576 23.75 43.2473 24.4085 44.4194 25.5806C45.5915 26.7527 46.25 28.3424 46.25 30V40C46.25 41.6576 45.5915 43.2473 44.4194 44.4194C43.2473 45.5915 41.6576 46.25 40 46.25H40C39.1792 46.25 38.3665 46.0883 37.6082 45.7742C36.8499 45.4602 36.1609 44.9998 35.5806 44.4194C35.0002 43.8391 34.5398 43.1501 34.2258 42.3918C33.9117 41.6335 33.75 40.8208 33.75 40V30C33.75 28.3424 34.4085 26.7527 35.5806 25.5806C36.7527 24.4085 38.3424 23.75 40 23.75V23.75Z" stroke="#7A5AF8" stroke-width="1.5" stroke-linecap="round" stroke-linejoin="round"/>
    <path d="M40 51.25V56.25" stroke="#7A5AF8" stroke-width="1.5" stroke-linecap="round" stroke-linejoin="round"/>
    <path d="M51.1814 41.25C50.8737 44.0002 49.5632 46.5405 47.5005 48.3853C45.4377 50.2301 42.7674 51.25 40.0001 51.25C37.2327 51.25 34.5625 50.2301 32.4997 48.3853C30.437 46.5405 29.1265 44.0002 28.8188 41.25" stroke="#7A5AF8" stroke-width="1.5" stroke-linecap="round" stroke-linejoin="round"/>
    <rect x="1" y="1" width="78" height="78" rx="11" stroke="#F2EFFE" stroke-width="2"/>
</svg>
