<svg width="80" height="80" viewBox="0 0 80 80" fill="none" xmlns="http://www.w3.org/2000/svg">
    <rect x="1" y="1" width="78" height="78" rx="11" fill="white"/>
    <path opacity="0.2" d="M50 38.75L41.25 30L45.3661 25.8839C45.6005 25.6495 45.9185 25.5178 46.25 25.5178C46.5815 25.5178 46.8995 25.6495 47.1339 25.8839L54.1161 32.8661C54.3505 33.1005 54.4822 33.4185 54.4822 33.75C54.4822 34.0815 54.3505 34.3995 54.1161 34.6339L50 38.75Z" fill="#EE46BC"/>
    <path d="M34.4822 53.75H27.5C27.1685 53.75 26.8505 53.6183 26.6161 53.3839C26.3817 53.1495 26.25 52.8315 26.25 52.5V45.5178C26.25 45.3536 26.2823 45.1911 26.3452 45.0394C26.408 44.8878 26.5 44.75 26.6161 44.6339L45.3661 25.8839C45.6005 25.6495 45.9185 25.5178 46.25 25.5178C46.5815 25.5178 46.8995 25.6495 47.1339 25.8839L54.1161 32.8661C54.3505 33.1005 54.4822 33.4185 54.4822 33.75C54.4822 34.0815 54.3505 34.3995 54.1161 34.6339L35.3661 53.3839C35.25 53.5 35.1122 53.592 34.9606 53.6548C34.8089 53.7177 34.6464 53.75 34.4822 53.75Z" stroke="#EE46BC" stroke-width="1.5" stroke-linecap="round" stroke-linejoin="round"/>
    <path d="M41.25 30L50 38.75" stroke="#EE46BC" stroke-width="1.5" stroke-linecap="round" stroke-linejoin="round"/>
    <path d="M45 50L51.25 43.75L50 38.75" stroke="#EE46BC" stroke-width="1.5" stroke-linecap="round" stroke-linejoin="round"/>
    <path d="M26.3296 45.0795L34.9206 53.6705" stroke="#EE46BC" stroke-width="1.5" stroke-linecap="round" stroke-linejoin="round"/>
    <rect x="1" y="1" width="78" height="78" rx="11" stroke="#F2EFFE" stroke-width="2"/>
</svg>
