<svg width="80" height="80" viewBox="0 0 80 80" fill="none" xmlns="http://www.w3.org/2000/svg">
    <rect x="1" y="1" width="78" height="78" rx="11" fill="white"/>
    <path opacity="0.2" d="M47.5003 25V40L42.4992 36.25L37.5003 40V25H31.2503C30.7578 25 30.2702 25.097 29.8152 25.2854C29.3603 25.4739 28.9469 25.7501 28.5987 26.0983C28.2504 26.4466 27.9742 26.86 27.7858 27.3149C27.5973 27.7699 27.5003 28.2575 27.5003 28.75V53.75C27.5003 53.2575 27.5973 52.7699 27.7858 52.3149C27.9742 51.86 28.2504 51.4466 28.5987 51.0983C28.9469 50.7501 29.3603 50.4739 29.8152 50.2854C30.2702 50.097 30.7578 50 31.2503 50H52.5003V25H47.5003Z" fill="#7A5AF8"/>
    <path d="M27.5002 53.75V55H50.0002" stroke="#7A5AF8" stroke-width="1.5" stroke-linecap="round" stroke-linejoin="round"/>
    <path d="M47.5002 25V40L42.4991 36.25L37.5002 40V25" stroke="#7A5AF8" stroke-width="1.5" stroke-linecap="round" stroke-linejoin="round"/>
    <path d="M27.5003 53.75C27.5003 52.7554 27.8954 51.8016 28.5987 51.0983C29.3019 50.3951 30.2557 50 31.2503 50H52.5003V25H31.2503C30.2557 25 29.3019 25.3951 28.5987 26.0983C27.8954 26.8016 27.5003 27.7554 27.5003 28.75V53.75Z" stroke="#7A5AF8" stroke-width="1.5" stroke-linecap="round" stroke-linejoin="round"/>
    <rect x="1" y="1" width="78" height="78" rx="11" stroke="#F2EFFE" stroke-width="2"/>
</svg>
