<svg width="80" height="80" viewBox="0 0 80 80" fill="none" xmlns="http://www.w3.org/2000/svg">
    <rect x="1" y="1" width="78" height="78" rx="11" fill="white"/>
    <path opacity="0.2" d="M53.75 53.75L49.1667 50L44.5833 53.75L40 50L35.4167 53.75L30.8333 50L26.25 53.75V38.75C26.25 35.1033 27.6987 31.6059 30.2773 29.0273C32.8559 26.4487 36.3533 25 40 25C43.6467 25 47.1441 26.4487 49.7227 29.0273C52.3013 31.6059 53.75 35.1033 53.75 38.75V53.75Z" fill="#2E90FA"/>
    <path d="M35.625 40C36.6605 40 37.5 39.1605 37.5 38.125C37.5 37.0895 36.6605 36.25 35.625 36.25C34.5895 36.25 33.75 37.0895 33.75 38.125C33.75 39.1605 34.5895 40 35.625 40Z" fill="#2E90FA"/>
    <path d="M44.375 40C45.4105 40 46.25 39.1605 46.25 38.125C46.25 37.0895 45.4105 36.25 44.375 36.25C43.3395 36.25 42.5 37.0895 42.5 38.125C42.5 39.1605 43.3395 40 44.375 40Z" fill="#2E90FA"/>
    <path d="M53.75 53.75L49.1667 50L44.5833 53.75L40 50L35.4167 53.75L30.8333 50L26.25 53.75V38.75C26.25 35.1033 27.6987 31.6059 30.2773 29.0273C32.8559 26.4487 36.3533 25 40 25C43.6467 25 47.1441 26.4487 49.7227 29.0273C52.3013 31.6059 53.75 35.1033 53.75 38.75V53.75Z" stroke="#2E90FA" stroke-width="1.5" stroke-linecap="round" stroke-linejoin="round"/>
    <rect x="1" y="1" width="78" height="78" rx="11" stroke="#F2EFFE" stroke-width="2"/>
</svg>
