<svg width="80" height="80" viewBox="0 0 80 80" fill="none" xmlns="http://www.w3.org/2000/svg">
    <rect x="1" y="1" width="78" height="78" rx="11" fill="white"/>
    <path opacity="0.2" d="M29.9999 53.75C29.8358 53.75 29.6732 53.7177 29.5216 53.6549C29.3699 53.5921 29.2321 53.5 29.116 53.3839C29 53.2678 28.9079 53.13 28.8451 52.9784C28.7823 52.8267 28.7499 52.6642 28.7499 52.5L28.75 45.829C28.0832 46.1448 27.3473 46.2869 26.6108 46.2419C25.8743 46.197 25.1612 45.9665 24.5377 45.5719C23.9142 45.1773 23.4007 44.6315 23.0448 43.9851C22.6889 43.3387 22.5023 42.6129 22.5023 41.875C22.5023 41.1372 22.6889 40.4113 23.0448 39.765C23.4007 39.1186 23.9142 38.5727 24.5377 38.1782C25.1612 37.7836 25.8743 37.5531 26.6108 37.5082C27.3473 37.4632 28.0832 37.6053 28.75 37.9211L28.7499 31.2501C28.7499 31.0859 28.7823 30.9233 28.8451 30.7717C28.9079 30.62 29 30.4822 29.1161 30.3662C29.2321 30.2501 29.3699 30.158 29.5216 30.0952C29.6732 30.0324 29.8358 30 30 30L37.296 30.0001C36.9801 29.3333 36.8381 28.5974 36.883 27.8609C36.928 27.1244 37.1585 26.4113 37.553 25.7878C37.9476 25.1643 38.4935 24.6508 39.1398 24.2949C39.7862 23.9391 40.5121 23.7524 41.2499 23.7524C41.9878 23.7524 42.7136 23.9391 43.36 24.2949C44.0063 24.6508 44.5522 25.1643 44.9468 25.7878C45.3413 26.4113 45.5718 27.1244 45.6168 27.8609C45.6617 28.5974 45.5197 29.3333 45.2038 30.0001L52.4999 30C52.8314 30 53.1493 30.1317 53.3837 30.3661C53.6182 30.6006 53.7499 30.9185 53.7499 31.25L53.75 37.9211C53.0831 37.6053 52.3472 37.4632 51.6108 37.5082C50.8743 37.5531 50.1611 37.7836 49.5376 38.1782C48.9142 38.5727 48.4006 39.1186 48.0447 39.765C47.6889 40.4113 47.5023 41.1372 47.5023 41.875C47.5023 42.6129 47.6889 43.3387 48.0447 43.9851C48.4006 44.6315 48.9142 45.1773 49.5376 45.5719C50.1611 45.9665 50.8743 46.197 51.6108 46.2419C52.3472 46.2869 53.0831 46.1448 53.75 45.829L53.7499 52.5C53.7499 52.8316 53.6182 53.1495 53.3837 53.3839C53.1493 53.6183 52.8314 53.75 52.4999 53.75L29.9999 53.75Z" fill="#EE46BC"/>
    <path d="M29.9999 53.75C29.8358 53.75 29.6732 53.7177 29.5216 53.6549C29.3699 53.5921 29.2321 53.5 29.116 53.3839C29 53.2678 28.9079 53.13 28.8451 52.9784C28.7823 52.8267 28.7499 52.6642 28.7499 52.5L28.75 45.829C28.0832 46.1448 27.3473 46.2869 26.6108 46.2419C25.8743 46.197 25.1612 45.9665 24.5377 45.5719C23.9142 45.1773 23.4007 44.6315 23.0448 43.9851C22.6889 43.3387 22.5023 42.6129 22.5023 41.875C22.5023 41.1372 22.6889 40.4113 23.0448 39.765C23.4007 39.1186 23.9142 38.5727 24.5377 38.1782C25.1612 37.7836 25.8743 37.5531 26.6108 37.5082C27.3473 37.4632 28.0832 37.6053 28.75 37.9211L28.7499 31.2501C28.7499 31.0859 28.7823 30.9233 28.8451 30.7717C28.9079 30.62 29 30.4822 29.1161 30.3662C29.2321 30.2501 29.3699 30.158 29.5216 30.0952C29.6732 30.0324 29.8358 30 30 30L37.296 30.0001C36.9801 29.3333 36.8381 28.5974 36.883 27.8609C36.928 27.1244 37.1585 26.4113 37.553 25.7878C37.9476 25.1643 38.4935 24.6508 39.1398 24.2949C39.7862 23.9391 40.5121 23.7524 41.2499 23.7524C41.9878 23.7524 42.7136 23.9391 43.36 24.2949C44.0063 24.6508 44.5522 25.1643 44.9468 25.7878C45.3413 26.4113 45.5718 27.1244 45.6168 27.8609C45.6617 28.5974 45.5197 29.3333 45.2038 30.0001L52.4999 30C52.8314 30 53.1493 30.1317 53.3837 30.3661C53.6182 30.6006 53.7499 30.9185 53.7499 31.25L53.75 37.9211C53.0831 37.6053 52.3472 37.4632 51.6108 37.5082C50.8743 37.5531 50.1611 37.7836 49.5376 38.1782C48.9142 38.5727 48.4006 39.1186 48.0447 39.765C47.6889 40.4113 47.5023 41.1372 47.5023 41.875C47.5023 42.6129 47.6889 43.3387 48.0447 43.9851C48.4006 44.6315 48.9142 45.1773 49.5376 45.5719C50.1611 45.9665 50.8743 46.197 51.6108 46.2419C52.3472 46.2869 53.0831 46.1448 53.75 45.829L53.7499 52.5C53.7499 52.8316 53.6182 53.1495 53.3837 53.3839C53.1493 53.6183 52.8314 53.75 52.4999 53.75L29.9999 53.75Z" stroke="#EE46BC" stroke-width="1.5" stroke-linecap="round" stroke-linejoin="round"/>
    <rect x="1" y="1" width="78" height="78" rx="11" stroke="#F2EFFE" stroke-width="2"/>
</svg>
