<svg width="304" height="304" viewBox="0 0 304 304" fill="none" xmlns="http://www.w3.org/2000/svg">
<path d="M148.096 107.7C132.767 107.311 117.401 107.756 102.072 107.552C83.6101 107.292 68.5405 95.8371 62.053 78.3393C57.3495 65.649 55.9315 52.4448 54.5113 39.2198L54.4904 39.0249C52.9148 24.4001 42.4792 15.1878 27.2427 15.5215C14.2862 15.7995 3.88763 26.4391 3.79495 40.137C3.47986 83.0289 15.6764 120.36 52.6924 145.902C59.6804 150.722 61.3672 156.635 61.3116 164.475C61.0891 203.994 61.1077 243.512 61.293 283.012C61.3486 297.321 70.3941 305.329 83.017 302.752C92.5815 300.788 97.5861 294.504 97.9383 284.939C98.309 274.986 98.0866 264.995 98.1237 255.023C98.1237 251.946 98.0681 248.887 98.2164 245.81L98.2237 245.637C98.3876 241.787 98.5722 237.449 103.759 237.34C109.078 237.21 109.449 241.658 109.505 245.569C109.653 258.229 109.282 270.908 109.783 283.549C110.339 297.525 119.329 304.958 132.433 302.956C141.09 301.622 146.428 297.099 146.428 287.72C146.428 274.3 146.688 260.861 146.447 247.442C146.298 239.619 149.561 236.264 157.401 236.468C167.744 236.746 178.124 236.765 188.467 236.468C196.308 236.246 199.57 239.619 199.422 247.442C199.199 260.102 199.162 272.761 199.626 285.421C199.941 293.725 203.833 300.435 212.36 302.623C220.293 304.643 227.541 302.993 232.935 295.987C236.012 292.02 236.197 287.516 236.215 282.901C236.253 271.001 236.215 259.119 236.345 247.219C236.401 242.956 236.642 237.766 242.221 237.655C248.393 237.525 247.541 243.141 247.615 247.164C247.856 258.674 247.226 270.222 248.078 281.677C249.265 297.674 260.015 304.81 274.288 299.879C284.427 296.376 286.559 287.85 286.707 278.656C286.985 261.788 286.967 244.902 286.781 228.016C286.688 220.175 287.875 213.021 292.194 206.125C300.553 192.761 303 177.71 302.981 162.14C302.963 139.507 302.981 116.875 302.981 94.2431L303 94.1689L160.312 101.528C159.501 103.635 155.924 107.82 148.096 107.7Z" fill="#C4CBD3"/>
<path fill-rule="evenodd" clip-rule="evenodd" d="M231.016 32.4887C250.742 32.9591 257.01 28.0739 277.196 10.6694C303.016 -11.6693 303.016 8.17653 303.016 17.9375V96.9406C302.03 123.756 293.646 144.456 231.016 144.456C168.386 144.456 160.003 123.756 159.016 96.9406V17.6061C159.016 7.696 159.016 -11.1333 184.837 10.6694C205.022 28.0739 211.29 32.9591 231.016 32.4887Z" fill="#C4CBD3"/>
<path d="M302.713 50.8863C254.354 50.8864 254.305 50.8864 254.305 28.0926C261.753 23.1267 266.255 19.9201 277.196 10.5051C303.016 -11.7141 303.016 8.18291 303.016 17.8279V50.8863H302.713Z" fill="#18273A"/>
<path d="M159.32 50.8863C207.679 50.8864 207.728 50.8864 207.728 28.0926C200.28 23.1267 195.856 20.0147 184.837 10.6909C159.016 -11.1578 159.016 7.71138 159.016 17.6426V50.8863H159.32Z" fill="#18273A"/>
<path d="M245.416 84.6767C245.416 96.4689 254.975 106.028 266.768 106.028C278.56 106.028 288.119 96.4689 288.119 84.6767C288.119 72.8844 278.56 63.325 266.768 63.325C254.975 63.325 245.416 72.8844 245.416 84.6767Z" fill="white"/>
<path d="M253.361 84.6767C253.361 92.0811 259.364 98.0836 266.768 98.0836C274.173 98.0836 280.175 92.0811 280.175 84.6767C280.175 77.2722 274.173 71.2698 266.768 71.2698C259.364 71.2698 253.361 77.2722 253.361 84.6767Z" fill="#192434"/>
<path d="M173.913 84.6767C173.913 96.4689 183.472 106.028 195.265 106.028C207.057 106.028 216.616 96.4689 216.616 84.6767C216.616 72.8844 207.057 63.325 195.265 63.325C183.472 63.325 173.913 72.8844 173.913 84.6767Z" fill="white"/>
<path d="M181.858 84.6767C181.858 92.0811 187.861 98.0836 195.265 98.0836C202.669 98.0836 208.672 92.0811 208.672 84.6767C208.672 77.2722 202.669 71.2698 195.265 71.2698C187.861 71.2698 181.858 77.2722 181.858 84.6767Z" fill="#192434"/>
<path fill-rule="evenodd" clip-rule="evenodd" d="M231.024 91.1318C235.977 91.1339 238.454 92.1212 238.454 95.077C238.454 95.8989 237.958 98.4303 235.972 101.981C233.987 105.532 235.476 109.871 236.469 110.857C240.44 114.803 243.914 113.816 245.403 110.857C248.382 103.953 253.57 106.258 253.842 110.857C254.338 119.241 242.921 121.707 237.958 120.72C234.883 120.109 232.999 119.735 231.016 119.734C229.034 119.735 227.149 120.109 224.075 120.72C219.111 121.707 207.694 119.241 208.19 110.857C208.463 106.258 213.651 103.953 216.629 110.857C218.118 113.816 221.593 114.803 225.564 110.857C226.557 109.871 228.046 105.532 226.06 101.981C224.075 98.4303 223.578 95.8989 223.578 95.077C223.578 92.1212 226.055 91.1339 231.008 91.1318C231.011 91.1318 231.014 91.1318 231.016 91.1318" fill="#1B2B41"/>
</svg>
