<svg width="306" height="306" viewBox="0 0 306 306" fill="none" xmlns="http://www.w3.org/2000/svg">
<g clip-path="url(#clip0_141_5171)">
<path d="M351 480C428.044 480 490 418.044 490 341C490 263.956 428.044 201 351 201C273.956 201 211 263.956 211 341C211 418.044 273.956 480 351 480Z" fill="#7A5AF8"/>
<path d="M80 141C103.196 141 122 122.196 122 99C122 75.804 103.196 57 80 57C56.804 57 38 75.804 38 99C38 122.196 56.804 141 80 141Z" fill="#7A5AF8"/>
<path d="M144 19C64.788 19 0 83.788 0 163C0 242.212 64.788 306 144 306C223.212 306 287 242.212 287 163C287 83.788 223.212 19 144 19ZM144 287C75.407 287 19 231.593 19 163C19 94.407 75.407 38 144 38C212.593 38 268 94.407 268 163C268 231.593 212.593 287 144 287Z" fill="#080808"/>
<path d="M192 133V124C192 109.014 184.144 81.6773 154 77V57H134V77C117.104 80.2455 96 92.6909 96 124C96 146.909 114.992 158.455 134 168V227C125.456 224.518 115 217.945 115 200V191H96V200C96 231.309 117.104 243.755 134 247V267H154V247C170.896 243.745 192 231.309 192 200C192 177.091 173.008 165.545 154 156V96C171.76 100.868 172.904 119.705 173 124V133H192ZM134 146C121.808 139.127 115 133.259 115 124C115 106.055 125.456 99.4818 134 97V146ZM173 200C173 217.945 162.544 224.518 154 227V178C166.192 184.873 173 190.741 173 200Z" fill="#080808"/>
</g>
<defs>
<clipPath id="clip0_141_5171">
<rect width="306" height="306" fill="white"/>
</clipPath>
</defs>
</svg>
