<svg width="305" height="277" viewBox="0 0 305 277" fill="none" xmlns="http://www.w3.org/2000/svg">
<path d="M36 18C35.9994 14.8631 35.5802 11.7164 34 9C32.4198 6.28363 29.7364 3.56806 27 2C24.2636 0.431943 21.1595 -0.000378814 18 2.48997e-07C14.8405 0.000379312 11.7361 0.431286 9 2C6.26393 3.56871 3.57956 6.28325 2 9C0.420442 11.7168 -0.000152636 14.8631 4.15473e-08 18C0.000152719 21.1369 0.420178 24.2834 2 27C3.57982 29.7166 6.26378 31.4315 9 33V277H27V33C29.7373 31.4317 32.4201 29.7175 34 27C35.5799 24.2825 36.0013 21.1378 36 18Z" fill="#E6E6E6"/>
<path d="M305 204.068C212.333 178.925 119.666 232.214 27 207.071V32.9313C119.667 58.075 212.333 4.78584 305 29.9289V204.068Z" fill="#2A75E6"/>
<path d="M27 117.927V207.077C119.667 232.199 212.333 178.951 305 204.072V114.922C212.333 89.8011 119.667 143.049 27 117.927Z" fill="#F9D549"/>
</svg>
