<svg width="529" height="309" viewBox="0 0 529 309" fill="none" xmlns="http://www.w3.org/2000/svg">
<g filter="url(#filter0_d_147_5275)">
<path d="M325 124.039L133.626 103.257C128.988 102.753 127.388 109.246 131.729 110.955L323.98 186.638C324.648 186.901 325.232 187.338 325.673 187.904L380.843 258.837C383.181 261.843 388 260.19 388 256.381L388 128.039C388 125.83 386.209 124.039 384 124.039L325 124.039Z" fill="#EE46BC" stroke="#080808" stroke-width="4"/>
<path d="M504.635 78.1048L71.2262 4.33312C66.7265 3.56722 64.6611 9.72417 68.7124 11.8267L360.111 163.059C361.292 163.672 362.7 163.657 363.869 163.02L505.879 85.5597C509.211 83.7426 508.376 78.7416 504.635 78.1048Z" fill="#EE46BC" stroke="#080808" stroke-width="4"/>
<path d="M69.7858 10.7268L184.103 258.176C185.082 260.295 187.641 261.143 189.666 260.02L369.194 160.488C372 158.933 371.9 154.843 369.02 153.394L75.1751 5.47555C71.7955 3.77434 68.1948 7.28291 69.7858 10.7268Z" fill="#EE46BC" stroke="#080808" stroke-width="4"/>
</g>
<defs>
<filter id="filter0_d_147_5275" x="64.5338" y="2.26318" width="464.433" height="281.259" filterUnits="userSpaceOnUse" color-interpolation-filters="sRGB">
<feFlood flood-opacity="0" result="BackgroundImageFix"/>
<feColorMatrix in="SourceAlpha" type="matrix" values="0 0 0 0 0 0 0 0 0 0 0 0 0 0 0 0 0 0 127 0" result="hardAlpha"/>
<feOffset dx="19" dy="21"/>
<feColorMatrix type="matrix" values="0 0 0 0 0.756863 0 0 0 0 0.74902 0 0 0 0 0.980392 0 0 0 1 0"/>
<feBlend mode="normal" in2="BackgroundImageFix" result="effect1_dropShadow_147_5275"/>
<feBlend mode="normal" in="SourceGraphic" in2="effect1_dropShadow_147_5275" result="shape"/>
</filter>
</defs>
</svg>
