<svg width="30" height="30" viewBox="0 0 30 30" fill="none" xmlns="http://www.w3.org/2000/svg">
    <rect width="30" height="30" rx="15" fill="#7A5AF8"/>
    <path d="M23.75 13.4375C23.75 13.8701 23.6217 14.2931 23.3813 14.6528C23.141 15.0125 22.7993 15.2929 22.3996 15.4585C21.9999 15.6241 21.5601 15.6674 21.1357 15.583C20.7114 15.4986 20.3216 15.2902 20.0157 14.9843C19.7098 14.6784 19.5014 14.2886 19.417 13.8643C19.3326 13.4399 19.3759 13.0001 19.5415 12.6004C19.7071 12.2007 19.9875 11.859 20.3472 11.6187C20.7069 11.3783 21.1299 11.25 21.5625 11.25C22.1427 11.25 22.6991 11.4805 23.1093 11.8907C23.5195 12.3009 23.75 12.8573 23.75 13.4375ZM10.625 13.4375C10.625 13.0049 10.4967 12.5819 10.2563 12.2222C10.016 11.8625 9.67433 11.5821 9.27462 11.4165C8.87491 11.2509 8.43507 11.2076 8.01074 11.292C7.58641 11.3764 7.19663 11.5848 6.8907 11.8907C6.58478 12.1966 6.37644 12.5864 6.29203 13.0107C6.20763 13.4351 6.25095 13.8749 6.41651 14.2746C6.58208 14.6743 6.86246 15.016 7.22219 15.2563C7.58192 15.4967 8.00485 15.625 8.4375 15.625C9.01766 15.625 9.57406 15.3945 9.9843 14.9843C10.3945 14.5741 10.625 14.0177 10.625 13.4375ZM12.1875 11.875C12.6201 11.875 13.0431 11.7467 13.4028 11.5063C13.7625 11.266 14.0429 10.9243 14.2085 10.5246C14.3741 10.1249 14.4174 9.68507 14.333 9.26074C14.2486 8.83641 14.0402 8.44663 13.7343 8.1407C13.4284 7.83478 13.0386 7.62644 12.6143 7.54203C12.1899 7.45763 11.7501 7.50095 11.3504 7.66651C10.9507 7.83208 10.609 8.11246 10.3687 8.47219C10.1283 8.83192 10 9.25485 10 9.6875C10 10.2677 10.2305 10.8241 10.6407 11.2343C11.0509 11.6445 11.6073 11.875 12.1875 11.875ZM17.8125 11.875C18.2451 11.875 18.6681 11.7467 19.0278 11.5063C19.3875 11.266 19.6679 10.9243 19.8335 10.5246C19.9991 10.1249 20.0424 9.68507 19.958 9.26074C19.8736 8.83641 19.6652 8.44663 19.3593 8.1407C19.0534 7.83478 18.6636 7.62644 18.2393 7.54203C17.8149 7.45763 17.3751 7.50095 16.9754 7.66651C16.5757 7.83208 16.234 8.11246 15.9937 8.47219C15.7533 8.83192 15.625 9.25485 15.625 9.6875C15.625 10.2677 15.8555 10.8241 16.2657 11.2343C16.6759 11.6445 17.2323 11.875 17.8125 11.875ZM19.6188 16.6297C19.3013 16.4546 19.0215 16.2185 18.7953 15.9351C18.5692 15.6517 18.4011 15.3265 18.3008 14.9781C18.093 14.2635 17.6588 13.6356 17.0636 13.1888C16.4684 12.742 15.7443 12.5004 15 12.5004C14.2558 12.5004 13.5316 12.742 12.9364 13.1888C12.3412 13.6356 11.907 14.2635 11.6992 14.9781C11.4985 15.6792 11.0279 16.272 10.3906 16.6266C9.77931 16.9573 9.29573 17.4825 9.01635 18.1189C8.73698 18.7554 8.67776 19.4668 8.84807 20.1407C9.01837 20.8146 9.40848 21.4124 9.9567 21.8397C10.5049 22.267 11.1799 22.4994 11.875 22.5C12.2915 22.5012 12.704 22.418 13.0875 22.2555C14.3102 21.7512 15.6828 21.7512 16.9055 22.2555C17.6461 22.5776 18.4826 22.6004 19.2397 22.3193C19.9968 22.0382 20.6156 21.4749 20.9665 20.7475C21.3173 20.0201 21.373 19.1851 21.1217 18.4175C20.8705 17.65 20.3318 17.0096 19.6188 16.6305V16.6297Z" fill="#201452"/>
</svg>
