<svg width="30" height="30" viewBox="0 0 30 30" fill="none" xmlns="http://www.w3.org/2000/svg">
<g clip-path="url(#clip0_369_10244)">
<path fill-rule="evenodd" clip-rule="evenodd" d="M27.9258 4.16377C23.3875 3.703 18.9884 2.28594 14.9993 0C11.0106 2.28581 6.61188 3.70279 2.07396 4.16377L0.204996 14.6806C-0.240473 16.8877 0.0447901 19.1857 1.01482 21.2047C1.98491 23.2238 3.5833 24.8464 5.55286 25.8114L14.9993 30L24.448 25.8159C26.4173 24.8517 28.0157 23.2296 28.9856 21.2111C29.9554 19.1925 30.2405 16.895 29.7948 14.6885L27.9258 4.16377ZM13.7501 19.7366C13.8271 19.8638 13.8788 20.0058 13.9022 20.154C13.9256 20.3023 13.9202 20.4539 13.8864 20.6C13.8526 20.7461 13.7909 20.8838 13.7052 21.0049C13.6193 21.1261 13.511 21.2283 13.3866 21.3057C13.2621 21.3831 13.124 21.434 12.9803 21.4555C12.8366 21.4771 12.6902 21.4688 12.5497 21.4312C12.4091 21.3935 12.2772 21.3272 12.1617 21.2363C12.0461 21.1453 11.9492 21.0314 11.8767 20.9013L9.53454 16.8631L7.19231 20.9013C7.04036 21.1525 6.79917 21.332 6.52059 21.4011C6.24202 21.4702 5.94836 21.4234 5.70284 21.2707C5.45731 21.1181 5.27953 20.8718 5.20772 20.5848C5.13592 20.2979 5.17585 19.9933 5.31895 19.7366L8.26011 14.6648L5.31895 9.59294C5.24196 9.46559 5.19022 9.32364 5.16681 9.17539C5.14339 9.02714 5.14877 8.87549 5.18261 8.72941C5.21645 8.58333 5.27809 8.44573 5.36393 8.32455C5.44977 8.20337 5.55804 8.10112 5.68251 8.02377C5.80698 7.94635 5.94508 7.8954 6.08876 7.87389C6.23244 7.85231 6.37881 7.86066 6.51941 7.89831C6.65994 7.9359 6.79182 8.00219 6.90737 8.09318C7.02292 8.1841 7.11978 8.29802 7.19231 8.42816L9.53454 12.4664L11.8767 8.42816C11.9492 8.29802 12.0461 8.1841 12.1617 8.09318C12.2772 8.00219 12.4091 7.9359 12.5497 7.89831C12.6902 7.86066 12.8366 7.85231 12.9803 7.87389C13.124 7.8954 13.2621 7.94635 13.3866 8.02377C13.511 8.10112 13.6193 8.20337 13.7052 8.32455C13.7909 8.44573 13.8526 8.58333 13.8864 8.72941C13.9202 8.87549 13.9256 9.02714 13.9022 9.17539C13.8788 9.32364 13.8271 9.46559 13.7501 9.59294L10.8089 14.6648L13.7501 19.7366ZM20.4641 16.9264H18.2782V20.3189C18.2782 20.6188 18.1631 20.9064 17.9581 21.1185C17.7531 21.3306 17.4752 21.4498 17.1852 21.4498C16.8954 21.4498 16.6174 21.3306 16.4124 21.1185C16.2075 20.9064 16.0923 20.6188 16.0923 20.3189V9.01052C16.0923 8.71062 16.2075 8.423 16.4124 8.2109C16.6174 7.99887 16.8954 7.87972 17.1852 7.87972H20.4641C21.6237 7.87972 22.7356 8.35624 23.5555 9.20457C24.3754 10.0528 24.836 11.2034 24.836 12.403C24.836 13.6027 24.3754 14.7532 23.5555 15.6016C22.7356 16.4498 21.6237 16.9264 20.4641 16.9264ZM20.4641 10.1414H18.2782V14.6648H20.4641C21.0439 14.6648 21.5999 14.4265 22.0099 14.0024C22.4198 13.5782 22.6501 13.003 22.6501 12.4031C22.6501 11.8033 22.4198 11.228 22.0099 10.8039C21.5999 10.3797 21.0439 10.1414 20.4641 10.1414Z" fill="#AAA9AD"/>
</g>
<defs>
<clipPath id="clip0_369_10244">
<rect width="30" height="30" fill="white"/>
</clipPath>
</defs>
</svg>
