<svg width="61" height="60" viewBox="0 0 61 60" fill="none" xmlns="http://www.w3.org/2000/svg">
<path d="M58.8308 31.6665C58.8348 28.3297 58.2479 25.0186 57.0974 21.8865C56.3308 30.8682 51.5424 35.4815 46.5391 33.3332C41.8524 31.3198 45.0108 23.4715 45.2441 19.7265C45.6374 13.3782 45.2241 6.11149 33.6924 0.0698242C38.4841 9.23649 34.2474 14.9315 29.8041 15.2782C24.8741 15.6632 20.3591 11.0415 22.0258 3.54149C16.6291 7.51816 16.4724 14.2115 18.1374 18.5415C19.8741 23.0548 18.0674 26.8048 13.8324 27.2215C9.09909 27.6882 6.46909 22.1532 8.89409 13.3332C4.54079 18.4488 2.15453 24.9493 2.16409 31.6665C2.16409 47.3148 14.8491 59.9998 30.4974 59.9998C46.1458 59.9998 58.8308 47.3148 58.8308 31.6665Z" fill="#6448CE"/>
<path d="M47.8194 39.999C48.0661 45.139 43.5511 47.154 41.1211 46.1806C37.6111 44.7756 38.5528 42.3623 37.6494 37.3623C36.7461 32.3623 33.2744 28.8906 28.1361 27.3623C31.8861 37.9173 26.0578 41.8073 23.0028 42.5023C19.8828 43.2123 16.7478 42.5006 16.3894 35.824C14.5191 37.6803 13.0352 39.889 12.0237 42.3224C11.0121 44.7557 10.4929 47.3654 10.4961 50.0006C10.4961 50.614 10.5344 51.2173 10.5878 51.8173C15.7044 56.874 22.7328 60.0006 30.4961 60.0006C38.2594 60.0006 45.2878 56.874 50.4045 51.8173C50.4578 51.2173 50.4961 50.614 50.4961 50.0006C50.4961 46.3556 49.5228 42.9406 47.8194 39.999Z" fill="#957BF9"/>
</svg>
