<svg width="529" height="496" viewBox="0 0 529 496" fill="none" xmlns="http://www.w3.org/2000/svg">
    <path d="M278.02 185.895C277.441 187.922 275.763 191.976 273.68 191.976C166.05 224.119 159.536 298.661 159.536 397.697C142.323 394.858 105.467 365.376 95.7451 270.162C95.7451 206.745 7.59028 191.976 1.13453 270.162C-1.7589 333.29 27.1863 470.84 145.22 494.296C408.22 494.296 522.932 517.73 524.528 390.048C526.267 251.05 526.845 195.741 526.267 187.633L278.02 185.895Z" fill="#C4CBD3"/>
    <path fill-rule="evenodd" clip-rule="evenodd" d="M401.942 57.6269C367.478 58.4495 356.526 49.907 321.26 19.4721C276.147 -19.5908 276.147 15.1129 276.147 32.1816V170.332C277.87 217.224 292.517 253.421 401.942 253.421C511.368 253.421 526.015 217.224 527.738 170.332V31.6021C527.738 14.2726 527.738 -18.6536 482.625 19.4721C447.359 49.907 436.407 58.4495 401.942 57.6269Z" fill="#C4CBD3"/>
    <path d="M276.677 89.7982C361.168 89.7984 361.254 89.7984 361.254 49.9395C348.241 41.2557 340.375 35.6484 321.26 19.1848C276.147 -19.6694 276.147 15.124 276.147 31.9898V89.7982H276.677Z" fill="#18273A"/>
    <path d="M527.208 89.7982C442.717 89.7983 442.631 89.7984 442.631 49.9394C455.644 41.2557 463.374 35.8138 482.625 19.5096C527.738 -18.6965 527.738 14.2994 527.738 31.6659V89.7982H527.208Z" fill="#18273A"/>
    <path d="M376.784 148.886C376.784 169.507 360.082 186.224 339.479 186.224C318.876 186.224 302.174 169.507 302.174 148.886C302.174 128.266 318.876 111.549 339.479 111.549C360.082 111.549 376.784 128.266 376.784 148.886Z" fill="white"/>
    <path d="M362.902 148.886C362.902 161.834 352.415 172.331 339.478 172.331C326.541 172.331 316.054 161.834 316.054 148.886C316.054 135.938 326.541 125.442 339.478 125.442C352.415 125.442 362.902 135.938 362.902 148.886Z" fill="#192434"/>
    <path d="M501.712 148.886C501.712 169.507 485.01 186.224 464.407 186.224C443.804 186.224 427.102 169.507 427.102 148.886C427.102 128.266 443.804 111.549 464.407 111.549C485.01 111.549 501.712 128.266 501.712 148.886Z" fill="white"/>
    <path d="M487.83 148.886C487.83 161.834 477.343 172.331 464.406 172.331C451.469 172.331 440.982 161.834 440.982 148.886C440.982 135.938 451.469 125.442 464.406 125.442C477.343 125.442 487.83 135.938 487.83 148.886Z" fill="#192434"/>
    <path fill-rule="evenodd" clip-rule="evenodd" d="M401.929 160.174C393.275 160.178 388.947 161.904 388.947 167.073C388.947 168.51 389.815 172.937 393.284 179.146C396.753 185.355 394.151 192.943 392.417 194.668C385.478 201.567 379.408 199.842 376.806 194.668C371.602 182.595 362.538 186.626 362.062 194.668C361.195 209.328 381.142 213.639 389.815 211.915C395.186 210.847 398.479 210.192 401.943 210.19C405.407 210.192 408.699 210.847 414.071 211.915C422.743 213.639 442.69 209.328 441.823 194.668C441.347 186.626 432.283 182.595 427.079 194.668C424.478 199.842 418.407 201.567 411.469 194.668C409.734 192.943 407.133 185.355 410.602 179.146C414.071 172.937 414.938 168.51 414.938 167.073C414.938 161.904 410.611 160.178 401.956 160.174C401.952 160.174 401.947 160.174 401.943 160.174" fill="#1B2B41"/>
</svg>
