<svg fill="none" xmlns="http://www.w3.org/2000/svg">
    <path d="M20.8682 112.719C20.9576 109.871 20.8468 107.027 20.5643 104.186C20.3748 102.262 21.2329 101.245 23.024 100.924C25.1906 100.535 26.8387 101.316 27.2606 103.158C29.0339 110.931 29.2305 118.711 26.5527 126.32C24.9868 130.77 22.0873 134.203 17.3502 135.535C11.2153 137.265 5.10175 134.053 2.23805 127.819C0.196634 123.375 0 118.625 0 113.879C0 110.503 0.218085 107.116 0.861613 103.779C1.22628 101.884 3.13899 100.699 5.35916 101.006C7.40415 101.288 8.26934 102.412 8.09058 104.589C7.71519 109.204 7.09312 113.8 7.28617 118.447C7.37913 120.663 7.71162 122.819 8.69479 124.824C10.7755 129.078 15.1336 129.621 18.2011 126.034C20.2175 123.682 20.575 120.777 20.836 117.879C20.9898 116.173 20.8646 114.439 20.8646 112.719H20.8682Z" fill="white"/>
    <path d="M37.8796 123.498C37.8796 126.557 37.8939 129.394 37.876 132.231C37.8617 134.655 36.9787 135.372 34.0399 135.404C31.5552 135.433 30.4075 134.512 30.3861 132.313C30.2824 122.21 30.6649 112.117 31.0761 102.028C31.1083 101.243 31.3263 100.59 32.0986 100.326C33.7861 99.7547 35.4914 99.8046 37.161 100.422C38.0333 100.747 37.8796 101.546 37.8796 102.249C37.8796 106.764 37.8796 111.279 37.8796 116.114C40.5932 114.49 42.9206 112.738 45.0228 110.672C48.0116 107.735 49.2772 107.877 51.9443 111.211C53.0133 112.549 52.9024 113.616 51.8299 114.805C50.8288 115.914 49.7205 116.896 48.4871 117.735C47.2608 118.57 46.0238 119.391 44.912 120.14C44.4937 120.765 44.9298 121.032 45.1622 121.339C47.3073 124.191 49.4667 127.035 52.0658 129.494C53.1455 130.515 53.2421 131.453 52.3376 132.581C48.269 137.642 47.9365 136.503 44.9584 132.931C42.8634 130.418 41.108 127.66 39.2775 124.958C38.9593 124.49 38.8163 123.866 37.8832 123.498H37.8796Z" fill="white"/>
    <path d="M62.1687 111.803C64.9108 110.368 67.5743 109.669 70.4094 110.629C74.2599 111.931 76.262 116.478 74.6639 120.204C74.0025 121.749 72.7941 122.613 71.1745 122.952C68.747 123.462 67.6744 122.599 67.6995 120.147C67.7102 119.137 67.7388 118.127 67.7209 117.117C67.7066 116.396 67.6244 115.625 66.845 115.322C66.0191 115 65.322 115.407 64.775 116.007C62.9481 118.02 62.4225 120.511 62.3868 123.102C62.3367 126.367 62.4404 129.636 62.4762 132.905C62.4976 135.011 61.947 135.664 59.8699 135.925C59.2228 136.007 58.5614 136.01 57.9071 135.989C55.4116 135.907 54.7681 135.279 54.7467 132.745C54.6823 125.91 55.0827 119.087 55.3044 112.26C55.3509 110.839 55.9193 110.182 57.3601 110.257C58.4291 110.311 59.498 110.29 60.5706 110.293C61.4715 110.297 62.0185 110.718 62.1687 111.803Z" fill="white"/>
    <path d="M100.6 113.784C100.021 120.122 100.107 126.71 100.329 133.302C100.375 134.672 99.7888 135.432 98.4695 135.664C96.7106 135.975 94.9301 136.403 93.3213 135.2C92.71 134.744 92.1701 135.129 91.6267 135.24C89.453 135.675 87.2614 135.936 85.0949 135.358C79.6749 133.905 76.3429 128.313 77.1151 122.085C78.1984 113.377 84.9447 108.509 93.5751 110.129C94.8407 110.365 96.1779 110.19 97.4792 110.258C100.543 110.411 100.708 110.6 100.6 113.787V113.784ZM93.2748 117.228C90.3968 115.954 87.787 116.614 86.0244 119.041C84.1689 121.596 83.9437 125.861 85.5775 127.717C86.7359 129.034 88.1981 129.076 89.6425 128.427C91.0832 127.781 92.8208 127.438 92.8029 125.158C92.785 122.56 93.0961 119.958 93.2713 117.228H93.2748Z" fill="white"/>
    <path d="M109.935 124.626C109.935 127.535 109.874 130.444 109.96 133.352C110.01 135.03 109.181 135.793 107.676 135.907C102.17 136.318 102.313 135.461 102.456 131.343C102.642 126.007 102.921 120.672 102.778 115.329C102.749 114.255 103.214 113.798 104.243 113.809C104.361 113.809 104.483 113.809 104.601 113.809C108.202 113.697 109.977 115.406 109.924 118.934C109.899 120.833 109.921 122.731 109.921 124.633C109.924 124.633 109.932 124.633 109.935 124.633V124.626Z" fill="white"/>
    <path d="M106.503 111.297C104.558 111.247 103.071 109.844 103.157 108.138C103.235 106.539 104.819 105.215 106.614 105.247C108.53 105.28 110.017 106.7 109.942 108.431C109.874 110.044 108.312 111.347 106.499 111.3L106.503 111.297Z" fill="white"/>
    <path d="M119.144 111.761C121.178 111.268 123.037 110.669 125.014 110.658C132.086 110.615 136.044 114.195 136.408 121.279C136.605 125.13 136.498 128.998 136.448 132.86C136.423 134.908 135.561 135.665 133.291 135.932C130.767 136.229 129.39 135.565 128.89 133.659C128.1 130.643 128.893 127.638 129.115 124.633C129.254 122.76 129.154 120.947 128.182 119.291C126.373 116.225 122.73 116.118 120.738 119.062C119.745 120.533 119.301 122.185 119.287 123.938C119.265 126.907 119.308 129.88 119.316 132.849C119.319 135.069 118.944 135.497 116.699 135.808C116.112 135.89 115.512 135.961 114.925 135.925C112.473 135.783 111.754 135.076 111.75 132.638C111.733 125.569 112.047 118.506 112.39 111.447C112.458 110.055 113.07 109.537 114.382 109.591C115.154 109.623 115.93 109.612 116.702 109.573C118.182 109.498 119.358 109.769 119.144 111.764V111.761Z" fill="white"/>
    <path d="M146.138 107.25V114.773C148.605 114.773 151.15 114.862 153.688 114.741C155.344 114.662 155.93 115.512 156.141 116.9C156.212 117.368 156.202 117.849 156.198 118.324C156.173 121.411 155.637 121.979 152.623 121.911C150.428 121.861 148.236 121.722 145.93 121.618V128.699C149.527 128.349 153.077 128.32 156.631 128.367C159.198 128.399 159.52 128.749 159.369 131.3C159.341 131.775 159.298 132.25 159.234 132.721C158.776 136.022 158.522 136.14 155.169 135.922C151.186 135.662 147.192 135.672 143.206 135.969C140.174 136.193 138.866 135.24 138.49 132.268C138.337 131.033 138.319 129.777 138.322 128.531C138.344 120.148 138.176 111.765 138.641 103.388C138.755 101.326 139.223 100.658 141.233 100.548C146.703 100.244 152.18 100.098 157.66 100.144C158.633 100.151 159.108 100.576 159.284 101.422C159.405 102 159.441 102.6 159.462 103.192C159.609 107.211 159.105 107.739 155.165 107.675C153.678 107.65 152.19 107.571 150.703 107.5C149.28 107.432 147.861 107.346 146.131 107.25H146.138Z" fill="white"/>
    <path d="M184.868 113.784C184.288 120.122 184.374 126.71 184.596 133.302C184.642 134.672 184.056 135.432 182.737 135.664C180.978 135.975 179.197 136.403 177.589 135.2C176.977 134.744 176.437 135.129 175.894 135.24C173.72 135.675 171.529 135.936 169.362 135.358C163.942 133.905 160.61 128.313 161.382 122.085C162.466 113.377 169.212 108.509 177.842 110.129C179.108 110.365 180.445 110.19 181.747 110.258C184.81 110.411 184.975 110.6 184.868 113.787V113.784ZM177.542 117.228C174.664 115.954 172.054 116.614 170.292 119.041C168.436 121.596 168.211 125.861 169.845 127.717C171.003 129.034 172.465 129.076 173.91 128.427C175.351 127.781 177.088 127.438 177.07 125.158C177.052 122.56 177.363 119.958 177.539 117.228H177.542Z" fill="white"/>
    <path d="M196.947 107.367C200.493 107.488 203.675 108.377 205.402 111.867C206.871 114.833 205.638 117.32 202.61 117.684C201.487 117.82 200.726 117.677 200.558 116.21C200.282 113.826 197.683 112.463 195.449 113.344C194.012 113.912 193.797 114.822 194.891 115.896C195.717 116.706 196.818 117.031 197.866 117.449C199.578 118.127 201.301 118.787 202.742 119.983C205.57 122.324 207.079 125.236 206.085 128.926C205.023 132.866 202.217 135.175 198.28 135.835C194.376 136.488 190.991 135.186 188.388 132.152C186.75 130.247 186.407 127.227 187.566 125.332C188.027 124.579 188.556 123.808 189.596 123.783C190.705 123.755 190.894 124.697 191.205 125.429C192.049 127.399 193.397 128.798 195.506 129.365C197.208 129.822 198.817 129.197 199.324 127.927C199.814 126.696 199.167 125.375 197.437 124.561C195.885 123.833 194.237 123.309 192.628 122.713C187.809 120.935 185.735 117.456 187.079 113.284C188.073 110.204 190.49 108.673 193.407 107.834C194.537 107.509 195.72 107.263 196.943 107.374L196.947 107.367Z" fill="white"/>
    <path d="M215.751 123.034C215.537 124.176 215.644 125.093 215.923 126.01C216.448 127.734 217.489 128.962 219.287 129.347C221.043 129.726 222.437 129.023 223.47 127.606C224.289 126.485 225.318 125.893 226.698 126.339C228.043 126.774 228.954 127.72 229.119 129.147C229.251 130.304 228.815 131.339 228.082 132.274C224.532 136.81 216.756 137.295 212.412 133.23C207.325 128.466 206.728 119.601 211.136 114.223C216.13 108.127 225.912 108.983 229.058 115.786C229.877 117.556 230.088 119.419 229.97 121.342C229.887 122.684 229.287 123.377 227.846 123.394C223.86 123.441 219.877 123.391 215.755 123.027L215.751 123.034ZM223.023 118.287C222.623 116.449 221.815 115.597 220.485 115.543C218.99 115.482 217.403 116.685 216.881 118.287H223.023Z" fill="white"/>
    <path fill-rule="evenodd" clip-rule="evenodd" d="M115.118 88.8347C139.69 88.8347 159.609 68.9509 159.609 44.4229C159.609 19.8949 139.69 0.0111084 115.118 0.0111084C90.5471 0.0111084 70.6282 19.8949 70.6282 44.4229C70.6282 68.9509 90.5471 88.8347 115.118 88.8347ZM97.0974 20.5519C104.893 27.2759 107.382 29.0942 115 28.9125C122.618 29.0942 125.107 27.2759 132.903 20.5519C142.806 12.0097 142.806 19.6432 142.806 23.2782V53.8123C142.425 64.1722 139.188 72.1691 115 72.1691C90.8124 72.1691 87.5746 64.1722 87.1938 53.8123V23.2782C87.1938 19.6432 87.1938 12.0097 97.0974 20.5519Z" fill="white"/>
</svg>
