<svg  xmlns="http://www.w3.org/2000/svg">    <path d="M24.9262 11.0404C18.0971 11.2041 15.8659 9.56636 8.87784 3.51037C0 -4.18334 0 2.69189 0 5.96581V33.4667C0.341455 42.7974 3.24382 50 24.9262 50C46.6086 50 49.511 42.7974 49.8525 33.4667V5.96581C49.8525 2.69189 49.8525 -4.18334 40.9746 3.51037C33.9866 9.56636 31.7553 11.2041 24.9262 11.0404Z" fill="white"/>    <path d="M78.5297 20.2765C78.6098 17.7115 78.5105 15.1497 78.2573 12.5911C78.0874 10.8585 78.8566 9.94245 80.4622 9.65316C82.4044 9.30279 83.8818 10.0067 84.26 11.6653C85.8496 18.6662 86.0259 25.6734 83.6254 32.5264C82.2217 36.5346 79.6226 39.6268 75.3761 40.8258C69.8766 42.3847 64.3963 39.4918 61.8292 33.8764C59.9993 29.8745 59.823 25.5963 59.823 21.3212C59.823 18.2804 60.0185 15.23 60.5954 12.2246C60.9223 10.5178 62.6369 9.45065 64.6271 9.72709C66.4602 9.98102 67.2358 10.9935 67.0756 12.9543C66.7391 17.1104 66.1814 21.2505 66.3545 25.4355C66.4378 27.4316 66.7359 29.3731 67.6172 31.1796C69.4824 35.0111 73.3891 35.4996 76.1389 32.2692C77.9464 30.151 78.2669 27.5345 78.5009 24.9245C78.6387 23.388 78.5265 21.8258 78.5265 20.2765H78.5297Z" fill="white"/>    <path d="M93.7792 29.9852C93.7792 32.7399 93.792 35.2953 93.776 37.8507C93.7631 40.0332 92.9715 40.6793 90.3371 40.7082C88.1098 40.7339 87.081 39.9046 87.0618 37.9246C86.9688 28.8248 87.3118 19.7347 87.6803 10.6477C87.7092 9.94058 87.9047 9.35236 88.5969 9.11449C90.1096 8.6002 91.6383 8.6452 93.135 9.20128C93.917 9.49379 93.7792 10.2138 93.7792 10.847C93.7792 14.9132 93.7792 18.9793 93.7792 23.3347C96.2116 21.8722 98.298 20.294 100.182 18.4329C102.862 15.7875 103.996 15.916 106.387 18.9182C107.345 20.1236 107.246 21.0847 106.284 22.1551C105.387 23.1547 104.394 24.0387 103.288 24.794C102.189 25.5462 101.08 26.2855 100.083 26.9605C99.7081 27.523 100.099 27.7641 100.307 28.0405C102.23 30.6088 104.166 33.1706 106.496 35.3853C107.464 36.3046 107.55 37.1499 106.74 38.1657C103.092 42.7236 102.794 41.6982 100.125 38.4807C98.2467 36.2178 96.6731 33.7331 95.0323 31.2998C94.747 30.8788 94.6188 30.3163 93.7824 29.9852H93.7792Z" fill="white"/>    <path d="M115.552 19.4514C118.01 18.1593 120.398 17.5293 122.939 18.3939C126.391 19.5672 128.186 23.6622 126.753 27.018C126.16 28.4098 125.077 29.1877 123.625 29.493C121.449 29.9527 120.488 29.1748 120.51 26.9666C120.52 26.0569 120.545 25.1472 120.529 24.2376C120.517 23.5883 120.443 22.894 119.744 22.6208C119.004 22.3315 118.379 22.6979 117.889 23.2379C116.251 25.0508 115.78 27.2944 115.748 29.628C115.703 32.5691 115.796 35.5135 115.828 38.4578C115.847 40.3543 115.354 40.9425 113.492 41.1771C112.911 41.2511 112.319 41.2543 111.732 41.235C109.495 41.1611 108.918 40.5953 108.899 38.3132C108.841 32.1577 109.2 26.0119 109.399 19.8629C109.441 18.5836 109.95 17.9921 111.242 18.0596C112.2 18.1078 113.158 18.0886 114.12 18.0918C114.927 18.095 115.418 18.4743 115.552 19.4514Z" fill="white"/>    <path d="M150.003 21.2357C149.484 26.9444 149.561 32.878 149.76 38.8149C149.802 40.0492 149.276 40.7339 148.093 40.9428C146.517 41.2224 144.921 41.6082 143.478 40.5249C142.93 40.1135 142.446 40.4607 141.959 40.5603C140.011 40.9524 138.046 41.1871 136.104 40.6664C131.245 39.3581 128.259 34.3213 128.951 28.7123C129.922 20.8693 135.969 16.4849 143.706 17.9442C144.84 18.1564 146.039 17.9989 147.206 18.0599C149.952 18.1982 150.1 18.3685 150.003 21.2389V21.2357ZM143.437 24.3375C140.857 23.19 138.517 23.7847 136.937 25.9704C135.274 28.2719 135.072 32.113 136.537 33.7845C137.575 34.9706 138.886 35.0091 140.181 34.4241C141.472 33.8423 143.03 33.5338 143.014 31.4798C142.998 29.1398 143.276 26.7965 143.434 24.3375H143.437Z" fill="white"/>    <path d="M158.371 31.0012C158.371 33.6208 158.317 36.2405 158.394 38.8602C158.438 40.371 157.695 41.0588 156.346 41.1617C151.41 41.5313 151.538 40.7599 151.667 37.0505C151.833 32.2451 152.083 27.4397 151.955 22.6278C151.929 21.6603 152.346 21.2489 153.269 21.2585C153.375 21.2585 153.484 21.2585 153.589 21.2585C156.818 21.1578 158.408 22.6964 158.361 25.8743C158.339 27.5843 158.358 29.2943 158.358 31.0076C158.361 31.0076 158.368 31.0076 158.371 31.0076V31.0012Z" fill="white"/>    <path d="M155.294 18.9956C153.551 18.9506 152.218 17.6874 152.295 16.1509C152.365 14.7109 153.785 13.5184 155.394 13.5473C157.112 13.5762 158.445 14.8555 158.377 16.4145C158.317 17.8674 156.916 19.0406 155.291 18.9988L155.294 18.9956Z" fill="white"/>    <path d="M166.626 19.4135C168.45 18.9699 170.116 18.4299 171.889 18.4203C178.228 18.3817 181.776 21.6057 182.103 27.9861C182.279 31.4544 182.183 34.9387 182.138 38.4166C182.115 40.2617 181.343 40.9431 179.308 41.1842C177.045 41.451 175.811 40.8531 175.363 39.1366C174.654 36.4205 175.366 33.7141 175.565 31.0076C175.69 29.3201 175.6 27.6872 174.728 26.1957C173.107 23.4346 169.841 23.3382 168.056 25.99C167.165 27.3143 166.767 28.8026 166.755 30.3808C166.735 33.0551 166.774 35.7327 166.78 38.407C166.783 40.4063 166.447 40.792 164.434 41.0717C163.909 41.1456 163.37 41.2099 162.845 41.1777C160.646 41.0492 160.002 40.4127 159.999 38.2173C159.983 31.8497 160.265 25.4886 160.572 19.1306C160.633 17.877 161.181 17.4109 162.357 17.4592C163.05 17.4881 163.745 17.4785 164.437 17.4431C165.764 17.3756 166.819 17.6199 166.626 19.4167V19.4135Z" fill="white"/>    <path d="M190.824 15.3509V22.1267C193.035 22.1267 195.317 22.2071 197.593 22.0978C199.076 22.0271 199.602 22.7921 199.791 24.0424C199.855 24.4635 199.846 24.8975 199.842 25.325C199.82 28.1054 199.339 28.6164 196.638 28.5554C194.67 28.5104 192.705 28.385 190.638 28.2918V34.669C193.862 34.354 197.045 34.3283 200.23 34.3701C202.531 34.399 202.82 34.714 202.685 37.0123C202.66 37.4398 202.621 37.8673 202.563 38.2916C202.153 41.2649 201.926 41.3709 198.919 41.1749C195.349 40.9402 191.769 40.9499 188.196 41.2166C185.478 41.4192 184.305 40.5609 183.969 37.8834C183.831 36.7712 183.815 35.6398 183.818 34.518C183.837 26.9675 183.687 19.417 184.103 11.873C184.206 10.0151 184.626 9.414 186.427 9.31436C191.33 9.04114 196.24 8.90935 201.153 8.95114C202.025 8.95757 202.451 9.34008 202.608 10.1019C202.717 10.6226 202.749 11.1626 202.768 11.6962C202.9 15.3155 202.448 15.7912 198.916 15.7334C197.583 15.7109 196.25 15.6402 194.917 15.5759C193.641 15.5148 192.369 15.4377 190.818 15.3509H190.824Z" fill="white"/>    <path d="M225.542 21.2357C225.023 26.9444 225.1 32.878 225.299 38.8149C225.34 40.0492 224.815 40.7339 223.632 40.9428C222.055 41.2224 220.459 41.6082 219.017 40.5249C218.469 40.1135 217.985 40.4607 217.498 40.5603C215.55 40.9524 213.585 41.1871 211.643 40.6664C206.784 39.3581 203.797 34.3213 204.49 28.7123C205.461 20.8693 211.508 16.4849 219.245 17.9442C220.379 18.1564 221.578 17.9989 222.744 18.0599C225.491 18.1982 225.638 18.3685 225.542 21.2389V21.2357ZM218.976 24.3375C216.396 23.19 214.056 23.7847 212.476 25.9704C210.813 28.2719 210.611 32.113 212.076 33.7845C213.114 34.9706 214.425 35.0091 215.719 34.4241C217.011 33.8423 218.569 33.5338 218.553 31.4798C218.536 29.1398 218.815 26.7965 218.972 24.3375H218.976Z" fill="white"/>    <path d="M236.37 15.456C239.55 15.5653 242.402 16.3656 243.95 19.5093C245.267 22.1804 244.161 24.4208 241.447 24.7486C240.441 24.8708 239.758 24.7422 239.607 23.4211C239.36 21.2739 237.031 20.0461 235.028 20.84C233.739 21.3511 233.547 22.1707 234.528 23.1382C235.268 23.8679 236.255 24.1604 237.194 24.5365C238.729 25.1472 240.274 25.7419 241.565 26.8187C244.1 28.9273 245.453 31.5502 244.562 34.8738C243.61 38.4224 241.094 40.5021 237.566 41.0967C234.066 41.685 231.031 40.5117 228.698 37.7795C227.23 36.0631 226.922 33.3438 227.961 31.6369C228.374 30.9587 228.849 30.2644 229.781 30.2419C230.775 30.2162 230.945 31.0648 231.223 31.7237C231.98 33.498 233.188 34.7581 235.079 35.2691C236.604 35.6806 238.047 35.1181 238.502 33.9738C238.941 32.8648 238.361 31.6755 236.809 30.9426C235.419 30.2869 233.941 29.8144 232.499 29.2776C228.179 27.6769 226.32 24.5429 227.525 20.7853C228.416 18.0114 230.582 16.6324 233.198 15.8771C234.21 15.5846 235.271 15.3628 236.367 15.4624L236.37 15.456Z" fill="white"/>    <path d="M253.227 29.567C253.035 30.5956 253.131 31.4217 253.381 32.2478C253.852 33.8003 254.785 34.9061 256.397 35.2532C257.97 35.5939 259.22 34.9607 260.146 33.6846C260.88 32.6753 261.803 32.1417 263.04 32.5435C264.245 32.9357 265.063 33.7875 265.21 35.0732C265.329 36.1146 264.938 37.0468 264.281 37.889C261.098 41.9744 254.128 42.4115 250.234 38.7504C245.673 34.4593 245.138 26.4749 249.09 21.6308C253.567 16.1408 262.335 16.9122 265.156 23.0387C265.89 24.633 266.079 26.3109 265.973 28.0434C265.899 29.252 265.361 29.8756 264.069 29.8917C260.496 29.9335 256.926 29.8885 253.23 29.5606L253.227 29.567ZM259.746 25.292C259.387 23.6366 258.663 22.8684 257.47 22.8202C256.131 22.7655 254.708 23.8487 254.24 25.292H259.746Z" fill="white"/></svg>